<svg xmlns="http://www.w3.org/2000/svg" version="1.0" width="2400.000000pt" height="400.000000pt" viewBox="-3 -3 2406 406" preserveAspectRatio="xMidYMid meet"><g id="deeditor_bgCarrier" stroke-width="0">
    <rect id="dee_c_e" x="-3" y="-3" width="2406" height="406" rx="0" fill="#002a55" strokewidth="0"/>
  </g>

<g transform="translate(0.000000,400.000000) scale(0.100000,-0.100000)" fill="#ffffff" stroke="none">
<path d="M9270 2295 l0 -1125 288 2 287 3 3 1123 2 1122 -290 0 -290 0 0 -1125z" fill="#ffffff"/>
<path d="M1330 2821 c-196 -43 -334 -116 -461 -241 -171 -170 -249 -378 -236 -630 18 -316 182 -561 471 -700 143 -69 238 -91 421 -97 231 -8 381 25 538 118 86 51 182 145 230 225 63 105 72 93 -168 216 -115 59 -215 108 -220 108 -6 0 -19 -15 -30 -32 -33 -56 -97 -119 -150 -146 -72 -37 -206 -43 -286 -13 -160 60 -252 248 -220 444 16 94 40 146 95 205 91 98 244 134 374 88 60 -20 157 -103 187 -160 11 -20 23 -36 28 -36 21 0 437 223 437 234 0 17 -64 122 -107 174 -80 98 -216 182 -368 228 -81 24 -109 27 -270 30 -148 3 -195 0 -265 -15z" fill="#ffffff"/>
<path d="M3295 2829 c-95 -14 -258 -57 -337 -90 -86 -35 -158 -76 -158 -89 0 -15 184 -380 191 -380 4 0 32 15 62 33 161 97 431 129 573 68 86 -37 154 -128 154 -206 l0 -23 -287 -4 c-254 -4 -297 -7 -368 -26 -180 -49 -299 -135 -358 -259 -28 -60 -32 -80 -35 -174 -3 -79 0 -122 13 -165 33 -117 107 -211 214 -274 105 -61 185 -82 341 -87 153 -5 242 8 333 52 63 29 145 99 167 141 14 26 15 23 20 -72 l5 -99 268 -3 267 -2 0 494 c0 604 -7 675 -88 830 -91 174 -267 289 -509 331 -94 16 -366 19 -468 4z m485 -1067 c0 -71 -3 -83 -30 -124 -56 -84 -137 -123 -255 -123 -66 0 -88 5 -125 25 -92 51 -114 163 -46 237 49 53 88 62 284 63 l172 0 0 -78z" fill="#ffffff"/>
<path d="M5820 2824 c-86 -18 -177 -64 -239 -120 l-51 -46 0 81 0 81 -275 0 -275 0 0 -1115 0 -1115 290 0 290 0 0 360 0 360 48 -37 c119 -92 252 -128 442 -120 143 6 212 22 325 76 206 98 351 278 417 516 18 68 21 106 21 250 0 144 -3 182 -21 250 -81 295 -293 508 -572 575 -102 24 -299 26 -400 4z m216 -469 c137 -61 215 -219 200 -402 -8 -105 -39 -177 -104 -245 -75 -79 -135 -101 -257 -96 -76 3 -98 8 -144 33 -112 62 -170 165 -179 319 -7 142 21 237 98 320 93 101 256 131 386 71z" fill="#ffffff"/>
<path d="M11080 2825 c-354 -71 -607 -304 -686 -631 -24 -96 -23 -285 0 -389 33 -149 129 -318 234 -413 101 -91 247 -170 385 -208 125 -35 348 -44 485 -20 419 73 697 369 728 774 33 435 -246 791 -691 883 -108 22 -353 25 -455 4z m332 -455 c93 -27 183 -122 215 -229 25 -84 22 -219 -7 -306 -19 -58 -33 -80 -84 -130 -75 -74 -128 -95 -241 -95 -68 0 -89 5 -140 29 -75 36 -126 88 -162 166 -23 51 -28 76 -31 167 -6 147 17 224 90 303 56 62 82 78 160 100 55 16 134 13 200 -5z" fill="#ffffff"/>
<path d="M13270 2826 c-82 -19 -128 -35 -200 -71 -281 -140 -435 -417 -417 -750 12 -215 76 -363 222 -511 78 -79 104 -98 195 -143 144 -71 260 -95 425 -88 178 9 280 43 389 132 l59 48 -5 -92 c-12 -203 -114 -308 -331 -342 -173 -27 -442 30 -591 125 -31 20 -60 36 -64 36 -6 0 -183 -331 -210 -392 -6 -13 138 -90 234 -124 173 -62 367 -94 574 -94 218 0 387 33 535 105 250 121 386 325 425 638 6 49 10 370 10 799 l0 718 -275 0 -275 0 0 -97 0 -97 -42 43 c-57 60 -149 117 -227 143 -82 26 -342 35 -431 14z m460 -462 c103 -34 189 -129 211 -232 45 -219 -99 -400 -328 -410 -185 -9 -325 84 -369 245 -50 185 62 364 256 410 64 14 165 9 230 -13z" fill="#ffffff"/>
<path d="M7267 2813 c-4 -3 -7 -100 -7 -215 l0 -208 365 0 c201 0 365 -3 365 -7 -1 -5 -169 -201 -375 -438 l-375 -430 0 -172 0 -173 760 0 760 0 0 215 0 215 -396 2 -396 3 381 439 381 438 -2 167 -3 166 -726 3 c-399 1 -729 -1 -732 -5z" fill="#ffffff"/>
<path d="M16527 2800 c-97 -16 -223 -48 -289 -75 -74 -30 -198 -102 -198 -115 0 -10 140 -270 145 -270 3 0 32 18 66 40 168 108 458 146 628 81 114 -43 185 -141 197 -273 l7 -66 -309 -4 c-344 -5 -402 -13 -529 -73 -167 -80 -255 -219 -255 -405 0 -233 150 -404 409 -467 90 -22 302 -22 395 1 101 24 189 70 251 131 l55 53 0 -94 0 -94 180 0 180 0 0 503 c0 285 -4 538 -10 585 -35 279 -186 451 -460 524 -86 23 -363 33 -463 18z m553 -1027 c0 -90 -3 -102 -29 -149 -74 -127 -233 -202 -411 -192 -134 8 -220 55 -261 143 -43 92 -5 205 85 252 61 32 148 41 384 42 l232 1 0 -97z" fill="#ffffff"/>
<path d="M18720 2791 c-200 -43 -383 -161 -489 -315 -48 -69 -98 -181 -122 -271 -29 -109 -31 -306 -6 -420 66 -291 289 -518 584 -595 330 -86 686 -19 885 168 l60 57 -102 117 -101 117 -52 -40 c-114 -91 -235 -131 -392 -131 -171 0 -285 41 -391 143 -60 58 -102 127 -122 202 l-10 37 633 0 634 0 7 58 c9 73 -10 251 -37 339 -91 292 -325 495 -629 543 -97 15 -254 11 -350 -9z m362 -310 c139 -48 244 -163 283 -310 7 -28 10 -52 7 -55 -3 -3 -210 -6 -460 -6 l-454 0 6 38 c19 103 117 242 210 295 40 24 115 51 166 61 50 9 186 -3 242 -23z" fill="#ffffff"/>
<path d="M21105 2795 c-142 -26 -267 -92 -343 -181 l-42 -49 0 113 0 112 -180 0 -180 0 0 -810 0 -810 190 0 190 0 0 443 c0 488 3 519 62 629 77 145 244 229 431 215 l67 -4 0 178 0 179 -62 -1 c-35 0 -94 -7 -133 -14z" fill="#ffffff"/>
<path d="M22397 2794 c-209 -38 -415 -166 -527 -329 -43 -63 -96 -178 -117 -255 -14 -51 -18 -102 -18 -235 1 -163 2 -174 32 -263 83 -247 269 -432 518 -511 373 -120 790 -7 1001 272 197 260 219 658 52 942 -54 92 -183 220 -274 273 -82 48 -219 96 -314 111 -89 15 -259 12 -353 -5z m312 -319 c258 -61 408 -328 347 -617 -39 -181 -167 -318 -341 -364 -110 -30 -267 -11 -367 43 -62 34 -148 124 -182 191 -52 102 -71 262 -45 384 57 269 313 427 588 363z" fill="#ffffff"/>
<path d="M15206 1684 c-67 -21 -147 -101 -165 -167 -21 -72 -10 -175 23 -232 115 -196 431 -166 502 49 21 63 15 166 -14 222 -59 116 -206 170 -346 128z" fill="#ffffff"/>
</g>
</svg>